# xmcd
#
# Track frame offsets:
#	150
#	17600
#	40890
#	55525
#	77770
#	97225
#	110780
#	130515
#	149880
#
# Disc length: 2127 seconds
#
# Revision: 1
# Processed by: cddbd v1.5.2PL0 Copyright (c) Steve Scherf et al.
# Submitted via: audiograbber 1.83.01
#
DISCID=7a084d09
DTITLE=Full Throttle - Gettin' Lucky
DYEAR=2004
DGENRE=Country Rock
TTITLE0=Don't You Run
TTITLE1=Rachel
TTITLE2=Drive
TTITLE3=All My Drinking Buddies
TTITLE4=Lock It Up
TTITLE5=Make Us Smile
TTITLE6=Southern Woman
TTITLE7=Bank Teller Girl
TTITLE8=Full Throttle
EXTD=
EXTT0=
EXTT1=
EXTT2=
EXTT3=
EXTT4=
EXTT5=
EXTT6=
EXTT7=
EXTT8=
PLAYORDER=
